<?xml version="1.0" encoding="utf-8"?>
<!-- Generator: Adobe Illustrator 22.0.1, SVG Export Plug-In . SVG Version: 6.00 Build 0)  -->
<svg version="1.1" id="Layer_1" xmlns="http://www.w3.org/2000/svg" xmlns:xlink="http://www.w3.org/1999/xlink" x="0px" y="0px"
	 viewBox="0 0 695.1 595.3" style="enable-background:new 0 0 695.1 595.3;" xml:space="preserve">
<style type="text/css">
	.st0{display:none;}
	.st1{display:inline;fill:#60605F;}
	.st2{fill:#1D517C;}
	.st3{opacity:0.9;}
	.st4{opacity:0.5;enable-background:new    ;}
</style>
<g id="Livello_2" class="st0">
	<rect x="-30" y="0" class="st1" width="755.8" height="595.3"/>
</g>
<g id="Livello_1">
</g>
<g id="Livello_1_copia">
	<g>
		<g>
			<path class="st2" d="M-0.3,485.2l42-121.8h41.6l42.1,121.8h-33l-6.2-21.8H39.1l-6.3,21.8H-0.3z M46.2,439.6h33l-12.4-40.2
				c-0.4-1.2-0.9-3.2-1.6-5.9c-0.7-2.7-1.5-6.2-2.6-10.5c-0.7,3-1.4,5.9-2.1,8.6s-1.4,5.3-2.1,7.8L46.2,439.6z"/>
			<path class="st2" d="M137.1,485.2V363.3h25.4c18.9,0,32.3,0.9,40.2,2.7c7.8,1.8,14.7,4.7,20.7,8.9c7.7,5.4,13.6,12.3,17.6,20.7
				c4,8.4,6,18,6,28.8s-2,20.3-6,28.8c-4,8.4-9.9,15.3-17.6,20.7c-5.9,4.1-12.6,7-20.1,8.8c-7.5,1.7-19.3,2.6-35.1,2.6h-5.6
				L137.1,485.2L137.1,485.2z M170,457.9h5.6c13,0,22.6-2.7,28.5-8c6-5.4,9-13.9,9-25.5c0-11.7-3-20.2-9-25.6s-15.5-8.2-28.5-8.2
				H170V457.9z"/>
			<path class="st2" d="M250.4,485.2l42-121.8H334l42.1,121.8h-33l-6.2-21.8h-47.2l-6.3,21.8H250.4z M296.9,439.6h33l-12.4-40.2
				c-0.4-1.2-0.9-3.2-1.6-5.9c-0.7-2.7-1.5-6.2-2.6-10.5c-0.7,3-1.4,5.9-2.1,8.6s-1.4,5.3-2.1,7.8L296.9,439.6z"/>
			<path class="st2" d="M387.8,485.2V363.3H421v93.4h41.3v28.5L387.8,485.2L387.8,485.2z"/>
			<path class="st2" d="M600.6,424.5c0,8.8-1.6,17-4.8,24.6c-3.2,7.7-7.9,14.5-14.1,20.6c-6.2,6-13.3,10.6-21.3,13.9
				s-16.3,4.9-24.9,4.9c-8.7,0-17.1-1.6-25-4.9c-8-3.2-15-7.9-21-13.9c-6.3-6-11-12.9-14.3-20.6s-4.9-15.9-4.9-24.6
				s1.6-16.9,4.9-24.6c3.2-7.7,8-14.6,14.3-20.6c6-6,13-10.6,21-13.9c8-3.2,16.3-4.9,25-4.9s17,1.6,25,4.9c8,3.2,15.1,7.9,21.2,13.9
				c6.1,6,10.8,12.8,14,20.6C599,407.6,600.6,415.8,600.6,424.5z M535.5,460.3c9.2,0,16.8-3.4,22.8-10.2c6-6.8,9-15.3,9-25.6
				c0-10.2-3.1-18.7-9.2-25.6c-6.1-6.8-13.7-10.2-22.7-10.2c-9.2,0-16.8,3.4-22.8,10.2c-6,6.8-9,15.3-9,25.6c0,10.4,3,19,8.9,25.7
				C518.5,456.9,526.1,460.3,535.5,460.3z"/>
			<path class="st2" d="M636,485.2v-93h-27.3v-28.8h87.8v28.8h-27.3v93H636z"/>
		</g>
		<g>
			<path class="st2" d="M302.9,515.6l36.7,43.7v-41.5h4.7v53.7l-36.7-43.7V570h-4.7V515.6z"/>
			<path class="st2" d="M357.4,517.7h25.8v4.5h-21.1v16.4h21.1v4.5h-21.1v22.5h21.1v4.5h-25.8V517.7z"/>
			<path class="st2" d="M404.1,522.2h-14.4v-4.5h33.5v4.5h-14.4V570h-4.7V522.2z"/>
			<path class="st2" d="M425.5,517.7h5l13.1,41.7l13.9-43.7l14.5,43.4l12.6-41.3h4.9l-17.4,53.6l-14.5-43.7l-13.9,43.7L425.5,517.7z
				"/>
			<path class="st2" d="M541.9,563.3c-5.3,5.2-12.3,8-19.8,8c-7.6,0-14.5-2.8-19.7-8c-5.3-5.2-8.2-12-8.2-19.3
				c0-7.4,2.8-14.3,8.2-19.5c5.3-5.2,12-7.9,19.7-7.9s14.5,2.7,19.8,7.9s8.2,12.1,8.2,19.5C550.1,551.3,547.2,558.2,541.9,563.3z
				 M545.1,544c0-12.9-10.2-23.2-22.9-23.2c-12.6,0-22.9,10.2-22.9,23.2c0,12.8,10.1,23.1,22.9,23.1
				C534.9,567.1,545.1,556.8,545.1,544z"/>
			<path class="st2" d="M586.6,570l-18.3-24.9h-2.8V570h-4.7v-52.2h9.6c11.3,0,16.9,4.7,16.9,14.2c0,8.2-5.2,13.1-13.6,13.1
				l18.8,24.9H586.6z M565.4,541.2h4.8c8.1,0,11.9-1.9,11.9-9.3c0-7.5-3.6-9.9-11.9-9.9h-4.8V541.2z"/>
			<path class="st2" d="M599.2,517.7h4.7v24.5l23.6-24.5h6.2l-24.7,25l25.9,27.2H628l-24-26.5V570h-4.7L599.2,517.7L599.2,517.7z"/>
			<path class="st2" d="M641.2,559c1.5,5.2,5.6,8.1,10.7,8.1c6.6,0,10.5-4,10.5-11c0-6.4-3.8-8.8-9.9-12.1
				c-8.3-4.3-13.1-7.7-13.1-15c0-7.4,5.5-12.6,13.5-12.6c5.3,0,9.1,2.3,11.5,6.6l-3.7,2.2c-1.5-3-4.4-4.6-8.2-4.6
				c-5.2,0-8.4,3.3-8.4,8.4c0,6.3,4.7,7.8,11.5,11.5c7.7,4.2,11.2,7.5,11.2,15.4c0,9.3-5.8,15.3-15.3,15.3
				c-6.9,0-11.8-3.4-14.5-10.1L641.2,559z"/>
		</g>
		<g class="st3">
			<polygon class="st4" points="514.3,203.9 599.9,204.1 514.3,309.1 			"/>
			<polygon class="st4" points="433,253.8 384.5,309.1 384.5,239.6 433,239.6 			"/>
		</g>
		<path class="st2" d="M384,309.2v-69.6h48.5v69.6h81.9V18.3h-48.9l-0.2,46.9l-32.7-0.1l-0.1-46.8H384L383.9,65h-33.8L350,18.3
			h-46.8l-0.1,290.8H384V309.2z M384,184.5V136h48.5v48.5H384z"/>
	</g>
</g>
</svg>
