<?xml version="1.0" encoding="utf-8"?>
<!-- Generator: Adobe Illustrator 25.4.1, SVG Export Plug-In . SVG Version: 6.00 Build 0)  -->
<svg version="1.1" id="Layer_1" xmlns="http://www.w3.org/2000/svg" xmlns:xlink="http://www.w3.org/1999/xlink" x="0px" y="0px"
	 viewBox="0 0 110.8 40.6" style="enable-background:new 0 0 110.8 40.6;" xml:space="preserve">
<style type="text/css">
	.st0{fill:#372877;}
</style>
<g>
	<path d="M0,22.3C0,19.9,1.9,18,4.4,18c1.2,0,2.3,0.4,3.1,1.2l-0.6,0.6c-0.7-0.7-1.5-1-2.5-1c-2,0-3.5,1.5-3.5,3.5s1.5,3.5,3.5,3.5
		c1,0,1.8-0.3,2.5-1l0.6,0.6c-0.7,0.8-1.8,1.2-3.1,1.2C1.9,26.6,0,24.8,0,22.3z"/>
	<path d="M14.7,20.2v6.3h-0.8v-1.2c-0.5,0.9-1.4,1.3-2.4,1.3c-1.8,0-3.1-1.3-3.1-3.2c0-1.9,1.3-3.2,3.1-3.2c1,0,1.9,0.4,2.4,1.2
		v-1.2H14.7z M13.8,23.4c0-1.5-1-2.5-2.3-2.5c-1.3,0-2.4,1-2.4,2.5c0,1.5,1,2.5,2.4,2.5C12.8,25.8,13.8,24.8,13.8,23.4z"/>
	<path d="M27.5,22.9v3.7h-0.9v-3.6c0-1.3-0.7-2-1.8-2c-1.3,0-2.1,0.8-2.1,2.3v3.3h-0.9v-3.6c0-1.3-0.7-2-1.8-2
		c-1.3,0-2.1,0.8-2.1,2.3v3.3h-0.9v-6.3h0.8v1.2c0.4-0.8,1.3-1.2,2.3-1.2c1,0,1.9,0.4,2.2,1.3c0.5-0.8,1.4-1.3,2.5-1.3
		C26.5,20.2,27.5,21,27.5,22.9z"/>
	<path d="M34.4,25l0.5,0.6c-0.6,0.7-1.4,1-2.4,1c-2,0-3.3-1.3-3.3-3.2s1.3-3.2,3.1-3.2c1.7,0,3,1.2,3,3l-5.2,1
		c0.3,1,1.2,1.6,2.4,1.6C33.3,25.8,34,25.5,34.4,25z M30,23.3c0,0.1,0,0.2,0,0.3l4.4-0.9c-0.2-1-1-1.8-2.2-1.8
		C30.9,20.9,30,21.9,30,23.3z"/>
	<path d="M36.4,23.4c0-1.9,1.4-3.2,3.2-3.2c1.8,0,3.2,1.3,3.2,3.2s-1.4,3.2-3.2,3.2C37.8,26.6,36.4,25.2,36.4,23.4z M42,23.4
		c0-1.5-1-2.5-2.3-2.5c-1.3,0-2.4,1-2.4,2.5c0,1.5,1,2.5,2.4,2.5C41,25.8,42,24.8,42,23.4z"/>
	<path d="M44,22.3c0-2.5,1.9-4.3,4.4-4.3c1.2,0,2.3,0.4,3.1,1.2l-0.6,0.6c-0.7-0.7-1.5-1-2.5-1c-2,0-3.5,1.5-3.5,3.5
		s1.5,3.5,3.5,3.5c1,0,1.8-0.3,2.5-1l0.6,0.6c-0.7,0.8-1.8,1.2-3.1,1.2C45.9,26.6,44,24.8,44,22.3z"/>
	<path d="M56.4,20.2V21c-0.1,0-0.1,0-0.2,0c-1.3,0-2.1,0.8-2.1,2.3v3.2h-0.9v-6.3H54v1.2C54.4,20.6,55.2,20.2,56.4,20.2z"/>
	<path d="M63.6,20.2v6.3h-0.8v-1.2c-0.5,0.9-1.4,1.3-2.4,1.3c-1.8,0-3.1-1.3-3.1-3.2c0-1.9,1.3-3.2,3.1-3.2c1,0,1.9,0.4,2.4,1.2
		v-1.2H63.6z M62.8,23.4c0-1.5-1-2.5-2.3-2.5c-1.3,0-2.4,1-2.4,2.5c0,1.5,1,2.5,2.4,2.5C61.8,25.8,62.8,24.8,62.8,23.4z"/>
	<path d="M66.8,19.5v0.7h1.9v0.7h-1.9v5.6H66v-7.1c0-1.1,0.7-1.9,1.9-1.9c0.5,0,0.9,0.1,1.3,0.4l-0.3,0.6c-0.2-0.2-0.6-0.3-0.9-0.3
		C67.2,18.3,66.8,18.7,66.8,19.5z"/>
	<path d="M73,26.1c-0.3,0.3-0.8,0.4-1.3,0.4c-1.2,0-1.8-0.7-1.8-1.8v-5.9h0.9v1.4h1.9v0.7h-1.9v3.8c0,0.7,0.4,1.2,1.1,1.2
		c0.4,0,0.7-0.1,0.9-0.3L73,26.1z"/>
</g>
<g>
	<path d="M79.7,18.7l-2.7,0v7.8h-0.9v-7.8l-2.7,0L73,18h7L79.7,18.7z"/>
	<path d="M86.3,20.2v6.3h-0.8v-1.2c-0.5,0.9-1.4,1.3-2.4,1.3c-1.8,0-3.1-1.3-3.1-3.2c0-1.9,1.3-3.2,3.1-3.2c1,0,1.9,0.4,2.4,1.2
		v-1.2H86.3z M85.5,23.4c0-1.5-1-2.5-2.3-2.5c-1.3,0-2.4,1-2.4,2.5c0,1.5,1,2.5,2.4,2.5C84.5,25.8,85.5,24.8,85.5,23.4z"/>
	<path d="M88.7,24.8v-7.1h0.9v7.1c0,0.7,0.3,1.2,1.1,1.2c0.2,0,0.4,0,0.6-0.1l0.1,0.7c-0.2,0.1-0.5,0.1-0.8,0.1
		C89.3,26.6,88.7,25.9,88.7,24.8z"/>
	<path d="M96.9,25l0.5,0.6c-0.6,0.7-1.4,1-2.4,1c-2,0-3.3-1.3-3.3-3.2s1.3-3.2,3.1-3.2c1.7,0,3,1.2,3,3l-5.2,1
		c0.3,1,1.2,1.6,2.4,1.6C95.8,25.8,96.4,25.5,96.9,25z M92.5,23.3c0,0.1,0,0.2,0,0.3l4.5-0.9c-0.2-1-1-1.8-2.2-1.8
		C93.4,20.9,92.5,21.9,92.5,23.3z"/>
	<path d="M105.3,22.9v3.7h-0.9v-3.6c0-1.3-0.7-2-1.9-2c-1.4,0-2.2,0.8-2.2,2.3v3.3h-0.9v-6.3h0.8v1.2c0.5-0.8,1.3-1.2,2.4-1.2
		C104.3,20.2,105.3,21,105.3,22.9z"/>
	<path d="M110.8,26.1c-0.3,0.3-0.8,0.4-1.3,0.4c-1.2,0-1.8-0.7-1.8-1.8v-5.9h0.9v1.4h1.9v0.7h-1.9v3.8c0,0.7,0.4,1.2,1.1,1.2
		c0.4,0,0.7-0.1,0.9-0.3L110.8,26.1z"/>
</g>
<polygon class="st0" points="9.6,17 45.5,16.6 42.9,12.1 49.8,14.9 54.9,8.6 54.4,16.7 64.2,17.6 57,14.5 58.1,0 48.7,11.5 
	35.7,5.8 40.7,14.2 "/>
<polygon class="st0" points="37,29.9 51.5,29.8 53.1,31.8 53.7,29.1 101.8,29.1 56.3,31.1 55.3,40.6 49.8,31.6 "/>
</svg>
